<svg version="1.0" xmlns="http://www.w3.org/2000/svg"
 width="300.000000pt" height="282.000000pt" viewBox="0 0 300.000000 282.000000"
 preserveAspectRatio="xMidYMid meet">
<metadata>
Created by potrace 1.10, written by Peter Selinger 2001-2011
</metadata>
<g transform="translate(0.000000,282.000000) scale(0.100000,-0.100000)"
fill="#000000" stroke="none">
<path  d="M377 2242 c-15 -17 -17 -65 -17 -485 0 -551 -10 -507 120 -507 119 0
120 1 120 195 l0 155 270 0 c149 0 273 -1 276 -2 3 -2 5 -71 4 -155 -1 -212
-23 -197 274 -190 241 5 288 12 380 59 88 45 216 203 216 266 0 20 5 22 63 22
l62 0 -3 -155 c-3 -145 -2 -155 18 -175 18 -18 32 -21 102 -19 120 3 120 2
116 194 l-3 155 141 0 c174 0 174 0 174 114 0 120 5 116 -165 116 l-145 0 0
100 0 100 234 0 c200 0 237 2 250 16 12 11 16 36 16 95 0 130 34 119 -364 119
-319 0 -344 -1 -359 -18 -15 -16 -17 -46 -17 -215 l0 -197 -49 0 -48 0 -5 49
c-11 109 -109 252 -219 318 -92 55 -145 63 -405 63 -211 0 -232 -2 -247 -18
-15 -16 -17 -46 -17 -215 l0 -197 -275 0 -275 0 0 100 0 100 234 0 c200 0 237
2 250 16 12 11 16 36 16 95 0 130 34 119 -364 119 -319 0 -344 -1 -359 -18z
m1338 -29 c141 -48 240 -149 287 -291 28 -85 30 -82 -71 -82 l-88 0 -18 47
c-22 57 -75 117 -129 146 -35 18 -63 22 -189 27 l-147 5 0 -112 0 -113 -90 0
-90 0 0 198 0 197 252 -6 c139 -3 267 -10 283 -16z m-645 -68 l0 -85 -250 0
-250 0 0 -130 0 -130 1045 0 1045 0 0 -80 0 -80 -1045 0 -1045 0 0 -175 0
-175 -90 0 -90 0 0 470 0 470 340 0 340 0 0 -85z m1780 0 l0 -85 -250 0 -250
0 0 -110 0 -110 -90 0 -90 0 0 195 0 195 340 0 340 0 0 -85z m-1170 -139 c48
-25 88 -64 111 -108 36 -70 43 -68 -191 -68 l-210 0 0 101 0 101 128 -4 c98
-3 135 -8 162 -22z m-320 -478 l0 -68 123 0 c161 0 211 14 280 81 l52 50 93 2
c50 1 92 -2 92 -6 0 -22 -57 -116 -98 -159 -55 -59 -111 -94 -193 -119 -52
-16 -94 -19 -295 -19 l-234 0 0 153 0 152 90 0 90 0 0 -67z m394 41 c-16 -18
-53 -42 -82 -55 -45 -21 -68 -24 -166 -24 l-114 0 -4 55 -3 55 199 0 200 0
-30 -31z m596 -126 l0 -153 -90 0 -90 0 0 153 0 152 90 0 90 0 0 -152z"/>
<path d="M600 1725 c0 -43 3 -55 16 -55 11 0 14 6 9 20 -5 17 -2 20 24 20 17
0 31 5 31 10 0 6 -14 10 -31 10 -20 0 -29 4 -26 13 2 6 16 11 31 9 18 -2 26 2
26 13 0 11 -11 15 -40 15 l-40 0 0 -55z"/>
<path d="M727 1773 c-4 -3 -7 -28 -7 -55 l0 -48 45 0 c25 0 45 5 45 10 0 6
-16 10 -35 10 -19 0 -35 5 -35 10 0 6 16 10 35 10 19 0 35 5 35 10 0 6 -16 10
-36 10 -24 0 -34 4 -31 13 2 7 17 11 35 9 24 -2 32 1 32 12 0 12 -10 16 -38
16 -21 0 -42 -3 -45 -7z"/>
<path d="M867 1728 c-15 -32 -20 -55 -13 -57 5 -2 12 1 14 8 5 14 62 15 62 1
0 -5 7 -10 15 -10 11 0 9 11 -10 52 -14 29 -29 54 -35 56 -5 2 -20 -20 -33
-50z m43 2 c9 -17 8 -20 -9 -20 -14 0 -18 5 -14 20 3 11 7 20 9 20 2 0 8 -9
14 -20z"/>
<path d="M1000 1725 c0 -30 5 -55 10 -55 6 0 10 7 10 15 0 20 7 19 37 -5 31
-24 43 -18 19 9 -15 16 -15 19 -1 24 37 15 2 67 -46 67 -29 0 -29 -1 -29 -55z
m65 15 c0 -8 -10 -16 -22 -18 -18 -3 -23 2 -23 18 0 16 5 21 23 18 12 -2 22
-10 22 -18z"/>
<path d="M1190 1725 l0 -55 33 0 c67 0 90 78 31 100 -55 21 -64 15 -64 -45z
m64 19 c9 -8 16 -19 16 -23 0 -13 -24 -31 -42 -31 -14 0 -18 8 -18 35 0 39 17
46 44 19z"/>
<path d="M1330 1725 c0 -30 5 -55 10 -55 6 0 10 7 10 15 0 8 7 15 15 15 9 0
18 -7 21 -15 4 -8 13 -15 22 -15 13 0 13 2 -2 19 -15 16 -15 19 -1 24 21 9 19
44 -4 57 -11 5 -31 10 -45 10 -25 0 -26 -3 -26 -55z m65 15 c0 -8 -10 -16 -22
-18 -18 -3 -23 2 -23 18 0 16 5 21 23 18 12 -2 22 -10 22 -18z"/>
<path d="M1460 1726 c0 -38 4 -56 13 -56 8 0 12 16 11 52 -2 73 -24 76 -24 4z"/>
<path d="M1530 1771 c0 -23 41 -101 52 -101 7 0 23 25 35 55 16 43 18 55 7 55
-7 0 -19 -18 -25 -40 -7 -22 -15 -40 -19 -40 -4 0 -12 18 -19 40 -10 35 -31
56 -31 31z"/>
<path d="M1680 1725 l0 -55 40 0 c22 0 40 5 4fdfds0 10 0 6 -13 10 -30 10 -16 0
-30 5 -30 10 0 6 14 10 30 10 17 0 30 5 30 10 0 6 -13 10 -30 10 -21 0 -30 5
-30 16 0 12 7 14 30 9 23 -5 30 -3 30 9 0 12 -10 16 -40 16 l-40 0 0 -55z"/>
<path d="M1815 1763 c-16 -16 -16 -18 5 -35 12 -10 29 -18 37 -18 8 0 13 -6
10 -12 -4 -14 -21 -15 -49 -3 -11 4 -18 3 -18 -4 0 -19 49 -32 71 -20 28 14
21 52 -10 59 -14 3 -27 12 -29 19 -4 11 3 13 27 8 32 -7 43 6 15 17 -26 10
-42 7 -59 -11z"/>
<path d="M2000 1725 c0 -30 5 -55 10 -55 6 0 10 9 10 20 0 16 7 20 31 20 17 0
28 4 24 10 -3 6 -17 10 -31 10 -14 0 -24 6 -24 15 0 11 8 13 30 9 23 -5 30 -3
30 10 0 12 -10 16 -40 16 l-40 0 0 -55z"/>
<path d="M2137 1728 c-15 -32 -20 -55 -13 -57 5 -2 12 1 14 8 5 14 62 15 62 1
0 -5 7 -10 15 -10 11 0 9 11 -10 52 -14 29 -29 54 -35 56 -5 2 -20 -20 -33
-50z m43 2 c9 -17 8 -20 -9 -20 -14 0 -18 5 -14 20 3 11 7 20 9 20 2 0 8 -9
14 -20z"/>
<path d="M2270 1778 c-1 -2 -2 -27 -3 -55 -2 -37 1 -53 10 -53 9 0 13 17 13
55 0 30 -4 55 -10 55 -5 0 -10 -1 -10 -2z"/>
<path d="M2330 1769 c0 -5 9 -9 20 -9 17 0 20 -7 20 -45 0 -25 5 -45 10 -45 6
0 10 21 10 46 0 37 3 45 15 40 9 -3 15 0 15 8 0 10 -13 14 -45 14 -25 0 -45
-4 -45 -9z"/>
<path d="M2460 1725 c0 -44 3 -55 16 -55 11 0 15 6 11 20 -4 17 0 20 24 20 22
0 29 -5 29 -20 0 -11 5 -20 10 -20 6 0 10 25 10 55 0 30 -4 55 -10 55 -5 0
-10 -11 -10 -25 0 -21 -5 -25 -29 -25 -25 0 -28 3 -23 25 3 18 0 25 -12 25
-13 0 -16 -11 -16 -55z"/>
</g>
</svg>
